<?xml version="1.0" encoding="utf-8"?>
<!-- Generator: Adobe Illustrator 23.0.6, SVG Export Plug-In . SVG Version: 6.00 Build 0)  -->
<svg version="1.1" id="Layer_1" xmlns="http://www.w3.org/2000/svg" xmlns:xlink="http://www.w3.org/1999/xlink" x="0px" y="0px"
	 viewBox="0 0 601.2 747.1" style="enable-background:new 0 0 601.2 747.1;" xml:space="preserve">
<style type="text/css">
	.st0{fill:#CE0000;}
	.st1{fill:#FFFFFF;}
</style>
<path class="st0" d="M574.2,215.5c-0.4,0.7-0.8,1.3-1.2,2c-4.8,6.8-10.6,12.9-17.2,18c-0.4,0.1-0.7,0.1-1.1,0.2
	c-5.9,1.1-11.8,0.8-17.5-0.4c3.3-8.1,6.2-16.3,8.7-24.8c-6.7-1.1-13.3-2.2-20-3.3c-12,45.2-47,82.8-86.8,113
	c85.8-165.6,173.2-387.6-77.5-300.8C241.8,60.9,77,136,64.6,261C48,427.8,260.3,415.8,300,363.6c2.3-2.3,4.2-4.9,5.9-7.6
	c0.1-0.2,0.2-0.3,0.4-0.5c0.5-0.5,0.9-1.1,1.3-1.7c-6.7-10-13.1-20.1-19.6-30.2c-2.9,1.9-5.7,4.6-8.4,6.7c-3.4,2.7-6.8,5.3-10.2,8
	c-2.4,0.8-5.1,1.5-7.6,1.2c-2.9-1-5.7-3.4-7.8-5.1c-1-0.9-16-17.1-21-26c-0.4-0.6-0.8-1.2-1-1.9c-0.1-0.1-0.1-0.2-0.2-0.3
	c0,0,0,0,0,0c-1.8-4.7-0.4-10.8,5.9-12.7c2.8-0.8,6.1-1.4,9.4-2.2c4.3-2.4,8.4-5.1,12.3-8.2c-7.3-9.2-15.2-18-24-25.7
	c-25.8,12.4-53.5,21-82.6,25.7c-7.9,1.3-15.9,2.2-24,2.8c-5.8,0.4-12.8,2.2-15.5-3.4c-0.9-1.9-1.5-4-1.9-6.2
	c4.5-35.8,25.5-76,67.8-111.9c17.9-15.1,53-41,94-66.3c0,0,0,0,0,0c7.7-4.8,15.5-9.5,23.6-14.1c7.2-3.6,15.8-7.3,25.5-10.5
	c12.4-3.5,26.2-6.7,40-7.8c0.1,0,0.1,0,0.1,0c17.1-1.4,34.2,0.4,48.7,8.5c21.4,12.1,29.2,35.7,29.5,59.2c-1.4,13.9-4,27.7-6.7,41.4
	c-0.3,1.7-0.7,3.5-1.1,5.2c-3,10.2-6.4,20.2-9.7,30.2c-6,18-12.3,35.9-18.8,53.8c-14.3,38.9-29.8,77.3-46.6,115.2
	c-50.3,16.5-100,34.1-147.4,57.1C119.6,480.4,29.2,550.3,5,645.5C2,657.1,0.3,669.1,0,681c0,0,8.7,145.1,182.6,5.3
	c24.9-15.7,54.8-41.8,89-84.4c34.2-42.7,72.6-101.9,114.5-184c4.6-8.3,9.6-17.2,14.8-26.6c14.9-7.5,29.7-15.3,44.2-23.5
	c64.7-36.7,125.5-84,155.7-147.1c0.1-0.3,0.2-0.6,0.4-0.8C592.2,218.5,583.2,217,574.2,215.5z M277.1,341.9c8.6-7,8.6-7,8.6-7
	l11.8,16.2l-9,8.9C288.5,360,268.5,349,277.1,341.9z M236.2,267.9l11.5,13.8c0,0,0,0-9.6,4.8c-9.6,4.8-13.5-14-13.5-14L236.2,267.9z
	 M217,292.1c9.3,22.5,22.5,43.6,42.1,59.1c1.4,1.1,2.8,2.2,4.3,3.2c-14.6,8.6-28.5,14.5-41.6,18.1c-13.7-5-25.8-13.4-35.2-24.5
	c-10.4-12.2-15.9-27.2-20.9-42.2C183.3,302.9,200.5,298.5,217,292.1z M152.2,307.9c9.4,24.7,23.8,48.8,47.6,65.7
	c1.3,0.9,2.6,1.8,3.9,2.6c-48.9,5.7-83.2-23.1-91.2-65.4C125.8,310.4,139.1,309.5,152.2,307.9z M78,267.9c0,0,0.3-35.9,20.8-45
	c0,0-24.8,64.5,5.9,113C104.7,335.9,74.1,325.9,78,267.9z M483.1,173.1c-0.2,0-0.5,0.1-0.7,0.1c-6.2,1.3-12.2,3.2-18,5.6
	c2.4-8.7,4.4-17.5,5.6-26.4c1.3-9.2,1.7-18.4,1.1-27.6c10.1-7.4,21.8-12.2,34.3-14C501.2,130,493.3,151.1,483.1,173.1z M508,75.1
	c0.7,6.4,0.6,13.2-0.1,20.4c-13.9,1.3-27.3,5.8-39.2,13c-1.3-5.8-3.2-11.5-5.6-17.1c-3.8-8.8-9.2-16.6-15.9-23.2
	c12.6-13.8,30.1-23,48.7-25.1C502.2,50.8,506.4,61.3,508,75.1z M435.7,58.8c-3.8-2.5-7.8-4.8-12-6.7c-13-5.9-26.9-8.9-41.1-10.2
	c38.8-14.9,74.2-21.3,97.6-10.8C463.1,36,447.6,45.5,435.7,58.8z M451,219.9c2.4-7.1,4.9-14.3,7.3-21.5c5.1-2.9,10.5-5.4,16.1-7.4
	c-10.6,21-22.7,42.4-35.2,63.3C443.1,242.9,447,231.4,451,219.9z M224.5,452.7c22.6-10.9,45.9-20.6,69.4-29.5
	c-9.2,5.7-18.3,11.4-27.3,17.2c-13,7.1-25.9,14.5-38.4,22.3c-3.1-2.8-6.6-5.1-10.3-6.8C220,454.8,222.3,453.7,224.5,452.7z
	 M203.4,463.3c5.4,0.5,10.7,2.3,15.1,5.5c-3.5,2.2-6.9,4.5-10.3,6.8c-16.8,11.4-33.3,24.2-48.6,38.2c-6.8-4.2-13.9-7.6-21.3-10.4
	C159.1,488.4,181.2,475,203.4,463.3z M40,614c3.5-7.5,7.5-14.7,11.9-21.8c0.1,0,0.3,0,0.4-0.1c3.3-0.8,7.6,0.9,10.8,1.6
	c4.4,1,8.7,2.3,12.9,3.7c5.8,2,11.3,4.3,16.7,7.1c-6.6,16.4-10.7,33.6-11.4,51.4c0,1-0.1,2-0.1,3c-17.4-5.4-38-1.4-55.6,5.4
	C27.4,643.8,35.5,623.9,40,614z M57.8,713.5c-15-3.5-21.6-15.6-25.8-29.1c7.7-3,15.8-5.2,23.9-6.2c8.1-1,17.4-1,24.6,3.2
	c0.2,10.7,5.6,20.6,14,27C82.8,712.9,70.3,716.4,57.8,713.5z M100.9,585.2c-6.8-3.3-13.8-6.2-20.9-8.5c-4.5-1.5-9.5-3.1-14.5-4.2
	c14.8-19.4,32.7-37.2,52.3-53.3c9.3,2.1,18,5.3,26.2,9.7c-16.5,17-30.9,35.6-41.7,55.4C101.8,584.6,101.4,584.9,100.9,585.2z
	 M121.1,673.4c-9.2-4-8.1-13.9-6.1-21.8c5.6,8,15.4,12.5,24.6,16.2c3.4,1.4,6.8,2.3,10.3,2.8C140.7,674.4,130.3,677.5,121.1,673.4z
	 M166.2,660.2c-6.9,0.8-13.9,0.7-20.3-1.6c-3.8-1.4-8-2.9-11.9-4.9c10.2-1,23.5-6.9,38.2-15.7c3.6,4.6,8.8,6.7,14.3,6.8
	C180.1,650,173.4,655.2,166.2,660.2z M206.6,627.1c-2.7,1.1-5.4,2.2-8,3.3c-4.3,1.8-12.9,6.1-17,1.8c21.1-13.6,44.3-31.9,65.1-49.5
	C241.7,589.2,227.8,607,206.6,627.1z M324.8,461.7c-21.3,29.5-51,66.3-92.3,110.3c-77.2,82.3-103.4,77.4-112.3,62.3
	c7-20.5,15.9-40.4,28-59c29-44.5,72-80.6,118.1-111.9c13.1-8.9,26.5-17.4,40-25.7c10.1-5.1,20.4-10.2,30.6-15.2c0,0,0,0,0,0
	c0.4-0.2,6.3-3,14.4-7C342.6,431.6,333.6,446.9,324.8,461.7z M530,217.8l7,1c0,0-3,9.4-5.6,12c0,0-3.9,0.5-5.6-1.5
	C525.7,229.3,529.1,223.5,530,217.8z M440.2,351.7c-8.3,4.8-16.7,9.4-25.2,13.9c3.7-6.8,7.4-13.7,11.2-20.8c2.3-1.6,4.6-3.1,6.9-4.8
	c8.5-6,16.9-12.3,25.1-18.9c4.3,4.4,9.4,7.8,15,10.1C462.4,338.5,451.4,345.3,440.2,351.7z M488.1,321.1c-0.4-0.2-0.8-0.3-1.3-0.4
	c-6.9-1.1-12.9-3.9-17.8-8.5c9.7-8.5,18.9-17.4,27.3-26.9c7.8,4.2,17.2,7.5,26.4,8C511.8,303.1,500.2,312.4,488.1,321.1z
	 M535.8,274.4c-8.8,5.3-20,2.8-29-1.6c6.9-8.8,13-18.1,18.3-27.7c5.8,2,12.2,2,18.5,1.8c4.5-0.2,9.2-0.5,13.6,0.8
	c2.6,0.8,3.7,1.9,4,3.3c-0.5,0.5-1,1-1.5,1.6C553.3,261.3,545.1,268.8,535.8,274.4z M578.8,237.4c0,0-6.1,0.5-8.9-1.5
	c0,0,5.4-5.8,6.8-11.5l11,1C587.7,225.3,583,234.7,578.8,237.4z"/>
</svg>
